# xmcd
#
# Track frame offsets: 
#        150
#        21359
#        44613
#        67809
#        92037
#        112280
#        130648
#        149187
#        171165
#        189035
#        212083
#
# Disc length: 3132 seconds
#
# Revision: 4
# Processed by: cddbd v1.5.2PL0 Copyright (c) Steve Scherf et al.
# Submitted via: ExactAudioCopy v1.1
#
DISCID=a20c3a0b
DTITLE=??? - ?????--????
DYEAR=2002
DGENRE=Blues
TTITLE0=??
TTITLE1=??
TTITLE2=?????
TTITLE3=???????
TTITLE4=????
TTITLE5=???
TTITLE6=????
TTITLE7=?????
TTITLE8=???????
TTITLE9=??
TTITLE10=?????
EXTD=
EXTT0=
EXTT1=
EXTT2=
EXTT3=
EXTT4=
EXTT5=
EXTT6=
EXTT7=
EXTT8=
EXTT9=
EXTT10=
PLAYORDER=
